<svg width="22" height="19" viewBox="0 0 22 19" fill="none" xmlns="http://www.w3.org/2000/svg">
<path d="M15 0H7C5.14348 0 3.36301 0.77847 2.05025 2.16416C0.7375 3.54984 0 5.42923 0 7.3889C0 9.3485 0.7375 11.2279 2.05025 12.6136C3.36301 13.9993 5.14348 14.7778 7 14.7778H11V19L19.16 13.3106C20.0512 12.639 20.7751 11.7495 21.2697 10.7183C21.7643 9.687 22.0148 8.5446 22 7.3889C22 5.42923 21.2625 3.54984 19.9497 2.16416C18.637 0.77847 16.8565 0 15 0ZM7 8.7083C6.75277 8.7083 6.5111 8.631 6.30554 8.486C6.09998 8.341 5.93976 8.1349 5.84515 7.8938C5.75054 7.6527 5.72579 7.3874 5.77402 7.1315C5.82225 6.87553 5.9413 6.64043 6.11612 6.4559C6.29093 6.27137 6.51366 6.14571 6.75614 6.0948C6.99861 6.04389 7.24995 6.07002 7.47835 6.16988C7.70676 6.26975 7.90199 6.43886 8.03934 6.65585C8.17669 6.87283 8.25 7.1279 8.25 7.3889C8.25 7.7388 8.1183 8.0744 7.88388 8.3219C7.64946 8.5693 7.33152 8.7083 7 8.7083ZM11 8.7083C10.7528 8.7083 10.5111 8.631 10.3055 8.486C10.1 8.341 9.9398 8.1349 9.8452 7.8938C9.7505 7.6527 9.7258 7.3874 9.774 7.1315C9.8222 6.87553 9.9413 6.64043 10.1161 6.4559C10.2909 6.27137 10.5137 6.14571 10.7561 6.0948C10.9986 6.04389 11.2499 6.07002 11.4784 6.16988C11.7068 6.26975 11.902 6.43886 12.0393 6.65585C12.1767 6.87283 12.25 7.1279 12.25 7.3889C12.25 7.7388 12.1183 8.0744 11.8839 8.3219C11.6495 8.5693 11.3315 8.7083 11 8.7083ZM15 8.7083C14.7528 8.7083 14.5111 8.631 14.3055 8.486C14.1 8.341 13.9398 8.1349 13.8452 7.8938C13.7505 7.6527 13.7258 7.3874 13.774 7.1315C13.8222 6.87553 13.9413 6.64043 14.1161 6.4559C14.2909 6.27137 14.5137 6.14571 14.7561 6.0948C14.9986 6.04389 15.2499 6.07002 15.4784 6.16988C15.7068 6.26975 15.902 6.43886 16.0393 6.65585C16.1767 6.87283 16.25 7.1279 16.25 7.3889C16.25 7.7388 16.1183 8.0744 15.8839 8.3219C15.6495 8.5693 15.3315 8.7083 15 8.7083Z" fill="#666666" fill-opacity="0.6"/>
</svg>
