<svg width="20" height="20" viewBox="0 0 20 20" fill="none" xmlns="http://www.w3.org/2000/svg">
<path fill-rule="evenodd" clip-rule="evenodd" d="M9.91919 19.4565C15.2636 19.4565 19.5962 15.124 19.5962 9.77954C19.5962 4.43508 15.2636 0.102539 9.91919 0.102539C4.57473 0.102539 0.242188 4.43508 0.242188 9.77954C0.242188 15.124 4.57473 19.4565 9.91919 19.4565ZM8.95801 11.4609H10.4521C10.4561 11.1602 10.4971 10.9004 10.5752 10.6816C10.6572 10.4629 10.8096 10.2539 11.0322 10.0547C11.29 9.8125 11.5264 9.57812 11.7412 9.35156C11.9561 9.125 12.1299 8.88086 12.2627 8.61914C12.3955 8.35352 12.4619 8.05078 12.4619 7.71094C12.4619 7.22266 12.3584 6.80859 12.1514 6.46875C11.9443 6.125 11.6455 5.86523 11.2549 5.68945C10.8643 5.50977 10.3955 5.41992 9.84863 5.41992C9.35254 5.41992 8.90527 5.50586 8.50684 5.67773C8.1084 5.8457 7.79004 6.10547 7.55176 6.45703C7.31738 6.80469 7.19434 7.24609 7.18262 7.78125H8.88184C8.88574 7.53906 8.93262 7.34375 9.02246 7.19531C9.11621 7.04688 9.23535 6.9375 9.37988 6.86719C9.52441 6.79297 9.68066 6.75586 9.84863 6.75586C10.0518 6.75586 10.2197 6.79492 10.3525 6.87305C10.4893 6.95117 10.5908 7.06641 10.6572 7.21875C10.7275 7.36719 10.7627 7.55469 10.7627 7.78125C10.7627 7.97656 10.7236 8.1543 10.6455 8.31445C10.5674 8.4707 10.46 8.62305 10.3232 8.77148C10.1865 8.91992 10.0264 9.07617 9.84277 9.24023C9.62402 9.44336 9.44824 9.64844 9.31543 9.85547C9.18652 10.0625 9.09473 10.2949 9.04004 10.5527C8.98926 10.8066 8.96191 11.1094 8.95801 11.4609ZM9.04004 12.6504C8.86816 12.8145 8.78223 13.0215 8.78223 13.2715C8.78223 13.5137 8.86816 13.7188 9.04004 13.8867C9.21191 14.0547 9.44238 14.1387 9.73145 14.1387C10.0166 14.1387 10.2451 14.0547 10.417 13.8867C10.5928 13.7188 10.6807 13.5137 10.6807 13.2715C10.6807 13.0215 10.5928 12.8145 10.417 12.6504C10.2451 12.4824 10.0166 12.3984 9.73145 12.3984C9.44238 12.3984 9.21191 12.4824 9.04004 12.6504Z" fill="#616160"/>
</svg>
