<svg width="86" height="31" viewBox="0 0 86 31" fill="none" xmlns="http://www.w3.org/2000/svg">
<path fill-rule="evenodd" clip-rule="evenodd" d="M66.2208 5.7799C65.0752 6.92553 65.0752 8.76938 65.0752 12.4571V17.6723C65.0752 21.36 65.0752 23.2039 66.2208 24.3495C67.3664 25.4951 69.2103 25.4951 72.898 25.4951H78.1132C81.8009 25.4951 83.6448 25.4951 84.7904 24.3495C85.936 23.2039 85.936 21.36 85.936 17.6723V12.4571C85.936 8.76938 85.936 6.92553 84.7904 5.7799C83.6448 4.63428 81.8009 4.63428 78.1132 4.63428H72.898C69.2103 4.63428 67.3664 4.63428 66.2208 5.7799ZM70.2819 11.1691C69.4229 11.1691 68.7258 10.4649 68.7258 9.59665C68.7258 8.7284 69.4229 8.02416 70.2819 8.02416C71.1408 8.02416 71.8379 8.7284 71.8379 9.59665C71.8379 10.4649 71.1417 11.1691 70.2819 11.1691ZM68.9481 22.1052V12.2995H71.6156V22.1052H68.9481ZM79.6179 22.1052H82.2854V16.08C82.2854 11.3973 77.3035 11.5676 76.0613 13.8729V12.2995H73.3939V22.1052H76.0613V17.1096C76.0613 14.3346 79.6179 14.1073 79.6179 17.1096V22.1052Z" fill="#0A66C2"/>
<path d="M11.1104 20.0688V22.354H3.95215V20.0688H11.1104ZM4.89941 8.13525V22.354H1.96973V8.13525H4.89941ZM16.183 11.7876V22.354H13.3607V11.7876H16.183ZM13.185 9.03369C13.185 8.62354 13.3282 8.28499 13.6146 8.01807C13.9011 7.75114 14.2852 7.61768 14.767 7.61768C15.2423 7.61768 15.6231 7.75114 15.9096 8.01807C16.2025 8.28499 16.349 8.62354 16.349 9.03369C16.349 9.44385 16.2025 9.78239 15.9096 10.0493C15.6231 10.3162 15.2423 10.4497 14.767 10.4497C14.2852 10.4497 13.9011 10.3162 13.6146 10.0493C13.3282 9.78239 13.185 9.44385 13.185 9.03369ZM21.8611 14.0435V22.354H19.0486V11.7876H21.6854L21.8611 14.0435ZM21.451 16.6997H20.6893C20.6893 15.9185 20.7902 15.2153 20.992 14.5903C21.1938 13.9588 21.477 13.4217 21.8416 12.979C22.2062 12.5298 22.6391 12.188 23.1404 11.9536C23.6482 11.7127 24.2146 11.5923 24.8396 11.5923C25.3344 11.5923 25.7869 11.6639 26.1971 11.8071C26.6072 11.9504 26.9588 12.1782 27.2518 12.4907C27.5512 12.8032 27.7791 13.2166 27.9354 13.731C28.0981 14.2453 28.1795 14.8735 28.1795 15.6157V22.354H25.3475V15.606C25.3475 15.1372 25.2824 14.7726 25.1521 14.5122C25.0219 14.2518 24.8299 14.0695 24.576 13.9653C24.3286 13.8547 24.0226 13.7993 23.658 13.7993C23.2804 13.7993 22.9516 13.8742 22.6717 14.0239C22.3982 14.1737 22.1704 14.382 21.9881 14.6489C21.8123 14.9093 21.6788 15.2153 21.5877 15.5669C21.4966 15.9185 21.451 16.2961 21.451 16.6997ZM33.7307 7.34424V22.354H30.9182V7.34424H33.7307ZM40.3908 11.7876L35.801 17.022L33.34 19.5122L32.3146 17.481L34.2678 15.0005L37.0119 11.7876H40.3908ZM37.4709 22.354L34.3459 17.4712L36.2893 15.772L40.7131 22.354H37.4709ZM46.8697 22.5493C46.0494 22.5493 45.3137 22.4191 44.6627 22.1587C44.0117 21.8918 43.4583 21.5239 43.0025 21.0552C42.5533 20.5864 42.2083 20.0428 41.9674 19.4243C41.7265 18.7993 41.6061 18.1353 41.6061 17.4321V17.0415C41.6061 16.2407 41.72 15.5083 41.9479 14.8442C42.1757 14.1802 42.5012 13.604 42.9244 13.1157C43.3541 12.6274 43.8749 12.2531 44.4869 11.9927C45.0989 11.7257 45.789 11.5923 46.5572 11.5923C47.3059 11.5923 47.97 11.716 48.5494 11.9634C49.1288 12.2108 49.6139 12.5623 50.0045 13.0181C50.4016 13.4738 50.7011 14.0207 50.9029 14.6587C51.1048 15.2902 51.2057 15.9933 51.2057 16.7681V17.9399H42.8072V16.0649H48.442V15.8501C48.442 15.4595 48.3704 15.1112 48.2271 14.8052C48.0904 14.4927 47.8821 14.2453 47.6021 14.063C47.3222 13.8807 46.9641 13.7896 46.5279 13.7896C46.1568 13.7896 45.8378 13.8709 45.5709 14.0337C45.304 14.1965 45.0859 14.4243 44.9166 14.7173C44.7538 15.0103 44.6301 15.3553 44.5455 15.7524C44.4674 16.1431 44.4283 16.5728 44.4283 17.0415V17.4321C44.4283 17.8553 44.4869 18.2459 44.6041 18.604C44.7278 18.9621 44.9003 19.2713 45.1217 19.5317C45.3495 19.7922 45.623 19.994 45.942 20.1372C46.2675 20.2804 46.6354 20.3521 47.0455 20.3521C47.5533 20.3521 48.0253 20.2544 48.4615 20.0591C48.9042 19.8573 49.2851 19.5545 49.6041 19.1509L50.9713 20.6353C50.7499 20.9543 50.4472 21.2603 50.0631 21.5532C49.6855 21.8462 49.2298 22.0871 48.6959 22.2759C48.162 22.4582 47.5533 22.5493 46.8697 22.5493ZM59.6475 20.0493V7.354H62.4795V22.354H59.9307L59.6475 20.0493ZM52.9678 17.1978V16.9927C52.9678 16.1854 53.0589 15.453 53.2412 14.7954C53.4235 14.1313 53.6904 13.5617 54.042 13.0864C54.3936 12.6112 54.8265 12.2433 55.3408 11.9829C55.8551 11.7225 56.4411 11.5923 57.0986 11.5923C57.7171 11.5923 58.2575 11.7225 58.7197 11.9829C59.1885 12.2433 59.5856 12.6144 59.9111 13.0962C60.2432 13.5715 60.5101 14.1346 60.7119 14.7856C60.9137 15.4302 61.0602 16.1366 61.1514 16.9048V17.354C61.0602 18.0897 60.9137 18.7733 60.7119 19.4048C60.5101 20.0363 60.2432 20.5897 59.9111 21.0649C59.5856 21.5337 59.1885 21.8983 58.7197 22.1587C58.251 22.4191 57.7041 22.5493 57.0791 22.5493C56.4215 22.5493 55.8356 22.4159 55.3213 22.1489C54.8135 21.882 54.3838 21.5076 54.0322 21.0259C53.6872 20.5441 53.4235 19.9777 53.2412 19.3267C53.0589 18.6756 52.9678 17.966 52.9678 17.1978ZM55.7803 16.9927V17.1978C55.7803 17.634 55.8128 18.0409 55.8779 18.4185C55.9495 18.7961 56.0635 19.1313 56.2197 19.4243C56.3825 19.7108 56.5908 19.9354 56.8447 20.0981C57.1051 20.2544 57.4209 20.3325 57.792 20.3325C58.2738 20.3325 58.6709 20.2251 58.9834 20.0103C59.2959 19.7889 59.5335 19.4862 59.6963 19.1021C59.8656 18.7179 59.9632 18.2752 59.9893 17.7739V16.4946C59.9697 16.0845 59.9111 15.7166 59.8135 15.3911C59.7223 15.0591 59.5856 14.7759 59.4033 14.5415C59.2275 14.3071 59.0062 14.1248 58.7393 13.9946C58.4788 13.8644 58.1696 13.7993 57.8115 13.7993C57.4469 13.7993 57.1344 13.884 56.874 14.0532C56.6136 14.216 56.402 14.4406 56.2393 14.7271C56.083 15.0135 55.9658 15.3521 55.8877 15.7427C55.8161 16.1268 55.7803 16.5435 55.7803 16.9927Z" fill="#0A66C2"/>
</svg>
