<svg width="37" height="36" viewBox="0 0 37 36" fill="none" xmlns="http://www.w3.org/2000/svg">
<path fill-rule="evenodd" clip-rule="evenodd" d="M2.6569 2.31217C0.705078 4.264 0.705078 7.40541 0.705078 13.6882V22.5735C0.705078 28.8563 0.705078 31.9977 2.6569 33.9495C4.60872 35.9014 7.75014 35.9014 14.033 35.9014H22.9182C29.201 35.9014 32.3424 35.9014 34.2943 33.9495C36.2461 31.9977 36.2461 28.8563 36.2461 22.5735V13.6882C36.2461 7.40541 36.2461 4.264 34.2943 2.31217C32.3424 0.360352 29.201 0.360352 22.9182 0.360352H14.033C7.75014 0.360352 4.60872 0.360352 2.6569 2.31217ZM9.57577 11.4939C8.11241 11.4939 6.92476 10.2941 6.92476 8.81484C6.92476 7.33558 8.11241 6.13577 9.57577 6.13577C11.0391 6.13577 12.2268 7.33558 12.2268 8.81484C12.2268 10.2941 11.0406 11.4939 9.57577 11.4939ZM7.30347 30.126V13.4197H11.8481V30.126H7.30347ZM25.4818 30.126H30.0264V19.8607C30.0264 11.8827 21.5386 12.1728 19.4224 16.1003V13.4197H14.8778V30.126H19.4224V21.6149C19.4224 16.887 25.4818 16.4997 25.4818 21.6149V30.126Z" fill="#0A66C2"/>
</svg>
