<svg width="20" height="20" viewBox="0 0 20 20" fill="none" xmlns="http://www.w3.org/2000/svg">
<path fill-rule="evenodd" clip-rule="evenodd" d="M3.56525 2.54821C3.08698 2.82433 2.9231 3.4359 3.19922 3.91417L4.34137 5.89232C4.72626 6.55907 4.24512 7.39232 3.47534 7.39232H1.19141C0.639099 7.39232 0.191406 7.84008 0.191406 8.39232V11.8328C0.191406 12.385 0.639099 12.8328 1.19141 12.8328H3.47504C4.24487 12.8328 4.72595 13.6662 4.34106 14.3328L3.19922 16.3105C2.9231 16.7888 3.08698 17.4004 3.56525 17.6765L6.54474 19.3967C7.02301 19.6728 7.63464 19.509 7.91077 19.0308L9.05273 17.053C9.43762 16.3862 10.3999 16.3862 10.7848 17.053L11.9268 19.0308C12.2029 19.509 12.8145 19.6728 13.2928 19.3967L16.2723 17.6765C16.7505 17.4004 16.9144 16.7888 16.6383 16.3105L15.4965 14.3328C15.1116 13.6662 15.5927 12.8328 16.3625 12.8328H18.6465C19.1988 12.8328 19.6465 12.385 19.6465 11.8328V8.39232C19.6465 7.84008 19.1988 7.39232 18.6465 7.39232H16.3622C15.5924 7.39232 15.1113 6.55907 15.4962 5.89232L16.6383 3.91417C16.9144 3.4359 16.7505 2.82433 16.2723 2.54821L13.2928 0.827991C12.8145 0.551868 12.2029 0.715686 11.9268 1.19396L10.7848 3.17199C10.3999 3.83861 9.43762 3.83861 9.05273 3.17199L7.91077 1.19396C7.63464 0.715686 7.02301 0.551868 6.54474 0.827991L3.56525 2.54821ZM10.0391 12.5029C11.3141 12.5029 12.3477 11.4692 12.3477 10.1943C12.3477 8.91942 11.3141 7.88573 10.0391 7.88573C8.76404 7.88573 7.73047 8.91942 7.73047 10.1943C7.73047 11.4692 8.76404 12.5029 10.0391 12.5029Z" fill="#616160"/>
</svg>
